<svg width="current" height="current" viewBox="0 0 11 11" fill="none" xmlns="http://www.w3.org/2000/svg"
    style="current">
    <path
        d="M11 10.426L7.92627 7.33595C8.66109 6.44934 9.02614 5.31374 8.94559 4.16502C8.86503 3.0163 8.34508 1.94275 7.49371 1.16737C6.64234 0.39198 5.52501 -0.0256496 4.37378 0.00122064C3.22255 0.0280909 2.12592 0.497396 1.31166 1.31166C0.497396 2.12592 0.0280909 3.22255 0.00122064 4.37378C-0.0256496 5.52501 0.39198 6.64234 1.16737 7.49371C1.94275 8.34508 3.0163 8.86503 4.16502 8.94559C5.31374 9.02614 6.44934 8.66109 7.33595 7.92627L10.426 11L11 10.426ZM0.822096 4.48614C0.822096 3.76146 1.03699 3.05306 1.4396 2.45051C1.84221 1.84796 2.41446 1.37833 3.08397 1.101C3.75349 0.823682 4.49021 0.751122 5.20096 0.8925C5.91172 1.03388 6.56459 1.38284 7.07701 1.89527C7.58944 2.4077 7.93841 3.06057 8.07978 3.77132C8.22116 4.48208 8.1486 5.21879 7.87128 5.88831C7.59396 6.55783 7.12432 7.13007 6.52178 7.53268C5.91923 7.93529 5.21082 8.15019 4.48614 8.15019C3.51438 8.15019 2.58241 7.76415 1.89527 7.07701C1.20813 6.38987 0.822096 5.45791 0.822096 4.48614V4.48614Z"
        fill="current" />
</svg>