<svg width="14" height="14" viewBox="0 0 14 14" fill="none" xmlns="http://www.w3.org/2000/svg">
    <path d="M6.04639 4.85718H7.27015V9.71429H6.04639V4.85718Z" fill="current" />
    <path d="M4.82275 0H8.49403V1.07936H4.82275V0Z" fill="current" />
    <path
        d="M14 3.77767L13.1311 3.01672L11.7544 4.231C10.6274 3.08312 9.04239 2.36232 7.32857 2.21838C5.61476 2.07443 3.90395 2.5184 2.5516 3.45804C1.19926 4.39768 0.309357 5.76074 0.0667976 7.26403C-0.175762 8.76731 0.24767 10.2952 1.24912 11.5303C2.25056 12.7654 3.75302 13.6127 5.44433 13.8962C7.13563 14.1796 8.88574 13.8775 10.331 13.0525C11.7763 12.2275 12.8057 10.943 13.2052 9.46606C13.6047 7.98909 13.3437 6.43313 12.4764 5.12147L14 3.77767ZM6.65744 12.9522C5.56828 12.9522 4.50357 12.6673 3.59796 12.1336C2.69235 11.5999 1.98652 10.8414 1.56971 9.95384C1.15291 9.06632 1.04385 8.08971 1.25634 7.14753C1.46882 6.20534 1.99331 5.33988 2.76346 4.6606C3.53362 3.98132 4.51486 3.51873 5.5831 3.33132C6.65133 3.1439 7.75859 3.24009 8.76485 3.60771C9.77111 3.97534 10.6312 4.59789 11.2363 5.39663C11.8414 6.19538 12.1644 7.13445 12.1644 8.0951C12.1644 9.38329 11.5842 10.6187 10.5514 11.5296C9.51867 12.4405 8.11797 12.9522 6.65744 12.9522V12.9522Z"
        fill="current" />
</svg>